<?xml version="1.0" encoding="utf-8"?>
<svg xmlns="http://www.w3.org/2000/svg" height="64" width="64" viewBox="0 0 64 64">
  <g>
    <path id="path1" transform="rotate(0,32,32) translate(0,12.9520034790039) scale(2,2)  " fill="#FFFFFF" d="M27,6.6000159L32,6.6000159 32,16.500062 27,16.500062z M13.100037,2.2737368E-13C13.900024,-2.3707958E-07 14.700012,0.59999287 14.700012,0.59999275 15.400024,1.3000078 19.200012,2.4000027 19.200012,2.4000025 22.5,3.6000044 23.5,5.5000207 23.5,5.5000207 24.900024,6.0000226 25.100037,6.7000225 25.100037,6.7000225L25.100037,16.700061C22,19.900069 12.200012,18.900066 11.900024,18.900066 10.900024,18.900066 10.200012,18.100059 10.200012,17.200063 10.200012,16.800067 10.299988,16.400056 10.600037,16.100051L10.299988,16.100051C9.2000122,16.100051,8.4000244,15.200054,8.4000244,14.200051L8.4000244,13.900047C8.4000244,13.600043,8.5,13.200047,8.6000366,13.00005L8.7000122,12.900043C7.6000366,12.900043,6.7999878,12.000046,6.7999878,11.000042L6.7999878,10.700037C6.7999878,10.300042,6.9000244,9.9000313,7.1000366,9.6000273L7.2000122,9.5000365 1.9000244,9.5000365C0.90002441,9.3000386,0,8.5000327,0,7.4000218L0,7.3000305C0,6.3000267,0.90002441,5.4000142,1.9000244,5.4000142L14.900024,5.4000142 15.100037,5.4000142 15.200012,5.4000142C11.700012,3.2000089 12.200012,1.0000036 12.200012,1.0000033 12.299988,0.30000394 12.700012,-2.3707958E-07 13.100037,2.2737368E-13z" />
  </g>
</svg>

